<?xml version="1.0" standalone="no"?>
<!DOCTYPE svg PUBLIC "-//W3C//DTD SVG 20010904//EN"
 "http://www.w3.org/TR/2001/REC-SVG-20010904/DTD/svg10.dtd">
<svg version="1.0" xmlns="http://www.w3.org/2000/svg"
 width="500.000000pt" height="500.000000pt" viewBox="0 0 500.000000 500.000000"
 preserveAspectRatio="xMidYMid meet">

<g transform="translate(0.000000,500.000000) scale(0.100000,-0.100000)"
fill="#000000" stroke="none">
<path d="M2791 3060 c-82 -25 -91 -34 -52 -54 17 -9 31 -23 31 -30 0 -8 -36
-132 -80 -277 -44 -145 -80 -278 -80 -296 0 -36 24 -57 51 -42 9 5 51 65 94
134 126 206 180 264 213 231 39 -38 -41 -316 -91 -316 -6 0 -19 8 -29 17 -24
22 -53 7 -53 -28 0 -17 8 -26 28 -33 24 -9 38 -6 83 18 30 16 68 46 84 66 49
62 90 160 96 231 5 56 3 67 -16 92 -25 32 -64 36 -116 11 -40 -19 -125 -101
-162 -156 -14 -22 -28 -36 -29 -31 -2 6 28 110 67 233 38 123 70 230 70 237 0
17 -32 15 -109 -7z"/>
<path d="M225 3021 c-7 -13 2 -18 48 -26 55 -11 71 -39 54 -96 -30 -98 -152
-435 -165 -456 -7 -12 -34 -30 -58 -39 -24 -9 -44 -21 -44 -26 0 -5 56 -7 125
-6 123 3 158 14 95 31 -48 12 -54 36 -31 125 32 124 99 325 115 347 14 19 16
16 49 -55 19 -41 69 -157 112 -258 42 -100 85 -186 94 -191 21 -12 141 -2 141
11 0 6 -11 23 -25 40 -14 16 -25 41 -25 55 0 31 135 448 155 479 8 12 31 28
52 34 51 17 58 22 42 29 -20 9 -269 1 -269 -9 0 -4 14 -13 32 -19 42 -15 68
-39 68 -65 0 -52 -99 -386 -114 -386 -6 0 -60 107 -120 238 -60 130 -114 240
-120 244 -16 11 -204 10 -211 -1z"/>
<path d="M1473 2887 c-16 -18 -35 -47 -42 -65 -11 -27 -19 -32 -48 -32 -41 0
-73 -15 -73 -35 0 -10 11 -15 34 -15 19 0 37 -4 40 -9 3 -5 -19 -75 -49 -157
-30 -82 -55 -156 -55 -165 0 -22 32 -49 59 -49 13 0 39 8 59 17 44 21 142 115
142 137 0 23 -8 20 -51 -19 -40 -36 -79 -46 -79 -20 0 21 78 235 91 251 6 8
26 14 43 14 86 1 105 34 25 43 -29 4 -53 8 -55 10 -2 2 3 25 12 50 27 80 -1
103 -53 44z"/>
<path d="M2322 2884 c-13 -9 -33 -36 -45 -61 -19 -40 -30 -49 -84 -71 -93 -38
-94 -68 -2 -40 22 6 41 9 44 6 3 -2 -23 -86 -56 -186 l-61 -182 -53 0 c-42 0
-55 -4 -59 -17 -6 -18 -106 -491 -106 -499 0 -2 29 -4 64 -4 l63 0 28 130 28
130 34 0 c30 0 34 -3 28 -17 -5 -10 -10 -47 -12 -83 -5 -73 13 -114 63 -146
32 -21 130 -24 187 -5 35 12 37 14 37 58 0 43 -1 45 -22 38 -45 -15 -108 -17
-123 -5 -23 19 -18 40 10 40 62 0 130 23 162 55 27 27 33 41 33 78 0 57 -27
93 -83 108 -22 6 -59 8 -82 4 -46 -7 -119 -47 -134 -73 -9 -14 -12 -15 -20 -3
-5 8 -8 19 -6 25 2 6 18 57 35 114 29 96 47 121 65 92 10 -16 87 -11 132 9
138 63 232 281 158 370 -31 36 -82 54 -136 49 l-39 -4 2 50 c3 57 -11 68 -50
40z m119 -155 c32 -32 24 -134 -16 -212 -29 -59 -93 -127 -119 -127 -21 0 -46
28 -46 53 0 12 21 86 47 164 l47 143 33 0 c20 0 41 -8 54 -21z m-83 -625 c4
-25 -15 -42 -56 -50 -37 -8 -39 -1 -12 44 24 38 63 42 68 6z"/>
<path d="M1959 2786 c-11 -23 -12 -23 -38 -8 -46 26 -78 9 -182 -96 -112 -114
-168 -194 -176 -251 -7 -52 8 -71 57 -71 43 0 128 57 192 128 44 49 54 53 35
15 -8 -16 -20 -45 -27 -66 -10 -33 -10 -41 6 -58 25 -27 72 -24 125 9 49 32
99 86 99 108 0 20 -8 18 -47 -16 -36 -32 -63 -39 -63 -16 0 8 25 81 55 163
l55 148 -21 18 c-30 24 -57 21 -70 -7z m-58 -75 l24 -19 -19 -35 c-10 -20 -43
-65 -72 -100 -120 -144 -206 -141 -136 5 31 65 75 118 127 150 38 23 47 23 76
-1z"/>
<path d="M1042 2783 c-94 -33 -183 -164 -190 -280 -4 -62 -4 -64 36 -103 36
-36 45 -40 90 -40 89 0 160 41 216 123 131 194 42 369 -152 300z m104 -48 c21
-82 -75 -321 -137 -340 -85 -27 -53 198 48 333 31 42 79 46 89 7z"/>
<path d="M3297 2786 c-173 -62 -267 -344 -137 -411 41 -21 116 -19 166 5 50
25 114 91 145 151 30 61 38 161 14 205 -31 58 -107 78 -188 50z m97 -51 c9
-36 -19 -158 -52 -229 -30 -63 -75 -116 -98 -116 -20 0 -44 29 -44 53 1 75 58
229 107 287 32 39 78 42 87 5z"/>
<path d="M3654 2789 c-43 -12 -129 -109 -98 -109 3 0 17 9 31 20 29 23 73 27
73 7 0 -7 -25 -73 -55 -146 -57 -137 -64 -168 -43 -189 24 -24 57 -14 81 26
13 20 55 87 93 147 101 162 174 234 174 173 0 -12 -30 -89 -67 -171 -73 -165
-74 -180 -9 -185 46 -4 123 37 172 90 55 62 45 77 -20 28 -33 -25 -76 -40 -76
-26 0 2 23 57 50 122 55 129 61 173 30 204 -52 52 -150 -8 -242 -149 -23 -35
-44 -59 -45 -54 -2 5 10 42 27 82 34 84 36 103 14 125 -17 18 -43 19 -90 5z"/>
<path d="M4255 2777 c-98 -47 -174 -163 -183 -278 -4 -65 -4 -66 33 -104 37
-36 40 -37 95 -33 43 3 67 11 93 31 36 27 84 94 74 103 -3 3 -24 -8 -48 -25
-81 -59 -144 -31 -137 60 3 48 6 50 105 79 91 26 143 67 143 114 0 70 -86 95
-175 53z m83 -19 c20 -20 14 -45 -19 -83 -30 -34 -102 -66 -117 -51 -12 13 43
100 78 124 38 25 42 26 58 10z"/>
<path d="M1206 2283 c-4 -21 -9 -46 -12 -55 -5 -16 2 -18 49 -18 l54 0 -33
-157 c-19 -87 -36 -173 -40 -190 l-6 -33 65 0 66 0 11 58 c7 31 24 116 39 187
l27 130 54 5 55 5 11 53 12 52 -173 0 -173 0 -6 -37z"/>
<path d="M1691 2210 c-134 -33 -209 -253 -116 -345 45 -46 139 -54 223 -19 29
12 32 17 32 58 l0 45 -35 -15 c-51 -21 -112 -19 -125 5 -5 11 -10 22 -10 24 0
2 28 8 63 11 127 15 195 94 155 181 -22 48 -112 74 -187 55z m72 -95 c8 -20
-22 -53 -55 -61 -35 -8 -37 11 -7 50 22 28 54 34 62 11z"/>
<path d="M2657 2206 c-61 -23 -87 -48 -119 -115 -42 -90 -24 -207 39 -248 32
-21 124 -24 171 -4 30 13 32 16 32 63 0 44 -2 49 -17 43 -10 -4 -37 -10 -60
-12 -39 -5 -43 -3 -53 22 -13 34 -5 82 21 125 19 31 22 32 76 28 l56 -3 18 43
18 43 -24 9 c-46 18 -119 20 -158 6z"/>
<path d="M3008 2211 c-46 -15 -83 -42 -107 -77 -72 -105 -66 -249 13 -291 40
-22 131 -21 172 0 69 36 124 135 124 224 0 49 -27 107 -59 126 -35 21 -106 29
-143 18z m62 -106 c26 -32 -13 -168 -52 -181 -36 -11 -49 42 -28 115 20 71 53
98 80 66z"/>
<path d="M3474 2206 c-17 -8 -39 -24 -48 -37 l-16 -23 0 32 c0 32 0 32 -50 32
-27 0 -50 -2 -50 -4 0 -7 -71 -340 -76 -358 -5 -16 2 -18 60 -18 60 0 66 2 71
23 3 12 14 65 25 117 12 52 28 105 36 118 16 25 52 30 60 8 5 -12 -26 -192
-42 -248 -5 -16 2 -18 59 -18 l65 0 10 48 c6 26 16 75 22 109 15 75 42 123 70
123 11 0 23 -6 26 -13 2 -7 -7 -68 -21 -136 -14 -68 -25 -125 -25 -127 0 -2
29 -4 64 -4 l64 0 11 48 c53 247 50 301 -16 328 -45 19 -85 11 -128 -27 -32
-29 -34 -29 -40 -9 -7 22 -53 50 -82 50 -10 -1 -32 -7 -49 -14z"/>
</g>
</svg>
