<svg version="1.1" id="Layer_1" xmlns="http://www.w3.org/2000/svg" xmlns:xlink="http://www.w3.org/1999/xlink" x="0px" y="0px"
	 width="100%" viewBox="0 0 500 500" enable-background="new 0 0 500 500" xml:space="preserve">
<path fill="#FFFFFF" opacity="1.000000" stroke="none" 
	d="
M319.000000,501.000000 
	C212.666687,501.000000 106.833382,501.000000 1.000057,501.000000 
	C1.000038,334.333405 1.000038,167.666794 1.000019,1.000146 
	C167.666565,1.000098 334.333130,1.000098 500.999756,1.000049 
	C500.999847,167.666519 500.999847,334.333038 500.999939,500.999786 
	C440.500000,501.000000 380.000000,501.000000 319.000000,501.000000 
M162.437790,175.961334 
	C155.946045,186.597717 151.816559,197.983521 151.109283,210.781067 
	C187.445953,210.781067 223.431671,210.781067 259.475342,210.781067 
	C257.396118,197.932449 248.274078,188.137390 235.723328,184.975662 
	C222.584167,181.665710 209.269363,186.165085 201.339508,196.473816 
	C200.298843,197.826660 198.807236,199.785919 197.484314,199.818192 
	C186.439346,200.087555 175.384949,199.971176 164.164139,199.971176 
	C164.327682,198.820587 164.335541,198.321777 164.472977,197.861694 
	C174.675430,163.703476 208.936996,145.639145 241.983810,152.253098 
	C243.450607,152.546646 245.938766,152.432755 246.518112,151.558746 
	C248.074982,149.210022 248.854263,146.345871 249.969101,143.620834 
	C214.295044,134.431747 182.597168,146.149307 162.437790,175.961334 
M246.500000,222.127869 
	C229.456635,222.127869 212.413254,222.127869 194.843079,222.127869 
	C198.358109,236.278748 206.268188,245.216782 219.615494,248.442337 
	C232.948776,251.664505 244.404816,247.693832 253.017059,237.012344 
	C255.432129,234.016998 257.713654,233.025909 261.332489,233.078827 
	C273.655640,233.259048 285.984406,233.233490 298.307068,233.037628 
	C299.827118,233.013458 302.449463,231.704880 302.658539,230.623627 
	C305.093781,218.029266 304.422058,205.573334 300.204895,193.019028 
	C296.621979,193.958557 293.349426,194.816696 290.634979,195.528488 
	C291.663757,204.616608 292.621185,213.074402 293.646088,222.128006 
	C277.406830,222.128006 262.453430,222.128006 246.500000,222.127869 
M198.759323,287.855072 
	C230.935623,298.870453 259.364777,293.023041 283.500793,268.715820 
	C290.302246,261.866119 295.378937,253.782761 298.549255,244.679825 
	C291.028473,242.669052 286.887634,245.013351 282.607727,251.578568 
	C266.518463,276.259003 242.908936,286.303101 214.198547,280.674927 
	C187.288239,275.399658 170.555664,257.963654 163.533157,231.408997 
	C162.743164,228.421829 162.289047,225.345840 161.700378,222.416504 
	C157.958939,222.416504 154.695801,222.416504 151.438385,222.416504 
	C151.562180,243.592850 165.929108,273.776154 198.759323,287.855072 
M291.686707,118.724648 
	C313.897034,132.266769 330.109314,150.793777 338.698975,176.007187 
	C342.866150,174.544678 346.719604,173.192276 350.867706,171.736450 
	C337.307709,133.546188 309.943665,110.063072 273.243042,95.281799 
	C271.554749,99.531883 270.107178,103.175949 268.674164,106.783310 
	C276.392487,110.749641 283.740631,114.525742 291.686707,118.724648 
M304.255615,166.353683 
	C307.122467,171.927261 309.989288,177.500854 313.074066,183.498108 
	C316.669250,182.263092 320.514069,180.942322 324.680969,179.510910 
	C313.875610,148.370087 291.581909,129.599045 261.868439,117.544617 
	C260.228943,121.710709 258.745911,125.479279 257.154144,129.524109 
	C276.420898,137.238556 292.627106,148.339066 304.255615,166.353683 
M133.226089,320.558167 
	C133.226089,317.749512 133.226089,314.940887 133.226089,312.006714 
	C129.965073,312.006714 127.077202,312.006714 123.711441,312.006714 
	C123.711441,319.647003 123.711441,326.973938 123.711441,335.298065 
	C119.499573,328.793610 115.394127,323.482391 112.434410,317.595123 
	C109.440407,311.639709 105.179512,310.652191 99.316528,312.140228 
	C99.316528,324.642334 99.316528,337.176849 99.316528,349.853394 
	C102.374847,349.853394 105.160301,349.853394 108.715302,349.853394 
	C108.715302,342.465515 108.715302,335.216125 108.715302,327.966736 
	C113.182419,333.315094 116.681389,338.737183 120.178429,344.160522 
	C124.522125,350.896881 124.750336,350.991364 133.226105,349.365448 
	C133.226105,340.124969 133.226105,330.832642 133.226089,320.558167 
M264.135223,337.791382 
	C264.943878,331.043793 263.479126,325.084473 257.444244,321.243927 
	C252.447830,318.064270 247.348358,318.511017 244.174911,320.946655 
	C239.449905,320.247101 236.142685,319.757446 232.546692,319.225067 
	C232.546692,334.786011 232.546692,349.456970 232.546692,364.182861 
	C235.763306,364.182861 238.649734,364.182861 242.005661,364.182861 
	C242.005661,358.291046 242.005661,352.777130 242.005661,346.987793 
	C252.082764,353.429016 260.663666,349.962891 264.135223,337.791382 
M225.430862,346.152283 
	C225.430862,337.394196 225.430862,328.636139 225.430862,319.952850 
	C217.063629,319.242218 216.845291,319.298828 215.315628,322.339386 
	C208.793396,317.834442 202.235016,318.321716 197.423950,323.668640 
	C192.089081,329.597717 191.976562,339.708374 197.178467,345.725189 
	C201.949844,351.244049 208.350601,351.736481 213.711929,348.226044 
	C217.527100,349.022491 219.877670,349.576569 222.252670,349.990540 
	C224.483658,350.379425 225.807312,349.609283 225.430862,346.152283 
M291.624451,349.995483 
	C294.044800,349.995483 296.465149,349.995483 299.045776,349.995483 
	C299.045776,343.870331 299.048950,338.397461 299.042389,332.924591 
	C299.041412,332.093628 299.038544,331.258759 298.963287,330.432373 
	C298.093781,320.881317 288.780273,316.204895 280.692749,321.249939 
	C279.932190,321.724457 279.170166,322.196564 277.866760,323.006714 
	C277.866760,318.239532 277.866760,314.143280 277.866760,310.005005 
	C274.784668,310.005005 272.044647,310.005005 269.227631,310.005005 
	C269.227631,323.436249 269.227631,336.619720 269.227631,349.732025 
	C272.309448,349.732025 275.058350,349.732025 278.100250,349.732025 
	C278.100250,344.672791 278.152771,339.878723 278.084259,335.086395 
	C278.025787,330.998138 279.003235,327.684967 283.817993,327.378876 
	C287.862976,327.121704 289.710632,329.738007 289.896637,335.260956 
	C290.061310,340.151398 290.406860,345.035767 291.624451,349.995483 
M275.965302,155.522049 
	C269.766602,151.802368 263.567871,148.082687 256.948975,144.110855 
	C255.044205,148.917740 253.545670,152.699417 251.907822,156.832687 
	C267.589966,162.870804 278.958832,173.142120 284.907715,189.018631 
	C289.212463,187.475830 293.060394,186.096741 296.929718,184.709991 
	C292.867035,172.870682 285.966461,163.511261 275.965302,155.522049 
M387.895996,342.132721 
	C386.555756,341.042297 385.215546,339.951843 383.875305,338.861420 
	C384.095123,338.461334 384.314941,338.061218 384.534790,337.661133 
	C391.287415,337.661133 398.040039,337.661133 404.730774,337.661133 
	C405.548492,326.996674 400.922913,320.665771 391.714874,319.333282 
	C383.219696,318.103943 376.143311,323.182037 374.631287,331.592651 
	C373.073242,340.259399 377.664398,348.144592 385.303680,349.922150 
	C393.838379,351.908051 401.186371,348.087891 403.836884,339.290100 
	C398.419037,340.353119 393.568359,341.304871 387.895996,342.132721 
M309.720245,322.086792 
	C309.082275,322.616760 308.390076,323.093933 307.814819,323.684937 
	C302.888214,328.746582 301.913605,337.015594 305.511353,343.008484 
	C309.098175,348.983276 317.019714,351.830566 324.317871,349.768219 
	C330.908508,347.905792 335.098114,342.082916 335.100159,334.782532 
	C335.103729,322.002930 322.860443,315.532318 309.720245,322.086792 
M167.193176,343.571533 
	C167.839874,342.059937 168.711487,340.602936 169.093964,339.027191 
	C170.674164,332.516693 169.396866,326.680634 163.884247,322.531555 
	C158.364090,318.376770 152.148209,318.036469 146.022369,321.089752 
	C139.825714,324.178436 137.432022,329.584137 137.996414,336.347137 
	C138.533417,342.781738 141.882431,347.342987 147.972366,349.310272 
	C155.190765,351.642151 161.754333,350.422729 167.193176,343.571533 
M339.899841,335.499146 
	C339.899841,340.261383 339.899841,345.023621 339.899841,349.740295 
	C343.284332,349.740295 346.037415,349.740295 349.100189,349.740295 
	C349.100189,345.511810 349.099121,341.543549 349.100433,337.575317 
	C349.102966,329.942932 350.511505,327.441010 354.854797,327.349609 
	C359.396179,327.254059 360.873108,329.823486 360.875671,337.828186 
	C360.876923,341.774902 360.875885,345.721649 360.875885,349.794250 
	C364.132324,349.794250 366.880707,349.794250 370.048950,349.794250 
	C370.048950,344.471954 369.971527,339.346832 370.070129,334.225098 
	C370.174225,328.819000 369.426819,323.762512 364.212402,320.822906 
	C358.933411,317.846832 353.978027,319.089905 349.712494,322.663788 
	C347.614624,317.180695 343.408356,320.559448 339.899841,319.643066 
	C339.899841,324.888275 339.899841,329.695221 339.899841,335.499146 
M190.576538,321.841248 
	C188.759308,320.683105 186.942078,319.524933 184.569778,318.013031 
	C184.476913,316.750000 184.321533,314.636658 184.157974,312.412048 
	C181.068253,312.412048 178.183044,312.412048 175.771057,312.412048 
	C175.046677,315.071167 174.411972,317.319366 173.824829,319.579956 
	C173.261887,321.747375 171.703201,325.376221 172.382965,325.866638 
	C176.726196,329.000061 174.861145,333.283630 174.947021,337.014313 
	C175.203461,348.155640 178.934479,351.341644 190.356964,349.479828 
	C190.356964,347.085266 190.356964,344.684021 190.356964,342.321259 
	C183.884079,341.647644 182.722488,338.231140 185.111313,327.623718 
	C186.823654,327.388428 188.570236,327.148468 190.583374,326.871857 
	C190.583374,325.303436 190.583374,323.987122 190.576538,321.841248 
M283.459351,386.108521 
	C283.459351,389.911041 283.459351,393.713562 283.459351,397.738739 
	C285.154755,397.738739 286.381622,397.738739 288.043549,397.738739 
	C288.043549,395.345612 287.705597,393.135193 288.168945,391.107880 
	C288.451691,389.870880 289.967590,388.915710 290.929657,387.833984 
	C291.687500,388.907440 292.697113,389.890045 293.126923,391.081818 
	C293.499664,392.115417 293.277374,393.389496 293.210175,394.551056 
	C292.985382,398.437286 294.892517,398.542328 297.932007,397.336151 
	C297.932007,395.145142 297.600647,393.078400 298.048370,391.197021 
	C298.347473,389.940308 299.754974,388.947388 300.666473,387.836395 
	C301.460358,388.901520 302.730530,389.880127 302.943207,391.050842 
	C303.318237,393.115204 303.048157,395.296783 303.048157,397.447876 
	C306.194946,398.495697 307.977356,398.205475 307.764099,394.684967 
	C307.653473,392.859100 307.881104,390.996155 307.618500,389.199280 
	C306.937073,384.535797 303.793732,382.826050 299.299713,384.212036 
	C297.949738,384.628357 296.348694,384.153564 294.875885,384.263580 
	C291.093658,384.546112 287.318817,384.927582 283.459351,386.108521 
M236.490341,391.845428 
	C235.812881,383.937164 234.221298,382.792206 226.926010,384.865540 
	C226.223190,385.065277 225.410019,384.957397 224.657578,384.888428 
	C220.617432,384.518250 216.580307,384.115112 212.572662,383.726349 
	C211.682053,398.121185 211.901505,399.852570 216.955261,396.969482 
	C216.955261,394.958618 216.658829,392.743256 217.077469,390.672455 
	C217.294250,389.600189 218.778168,388.784027 219.689606,387.852142 
	C220.461807,388.759857 221.751343,389.590149 221.901031,390.590973 
	C222.236832,392.836029 222.006226,395.165771 222.006226,397.452698 
	C225.222046,398.513275 226.987762,398.168152 226.764023,394.669403 
	C226.679245,393.343994 226.496094,391.925842 226.862137,390.700653 
	C227.178543,389.641510 228.209335,388.795715 228.924316,387.855591 
	C229.910202,388.733276 231.277054,389.438141 231.775391,390.536926 
	C232.279587,391.648682 232.035965,393.159882 231.923065,394.479248 
	C231.646011,397.716919 232.917557,398.784302 236.492798,397.422668 
	C236.492798,395.955231 236.492798,394.323090 236.490341,391.845428 
M313.493408,404.900604 
	C318.307068,403.967163 314.568481,399.763397 316.453064,397.513092 
	C317.381195,397.681702 318.461914,398.018860 319.551727,398.051300 
	C323.885559,398.180420 326.007751,395.539612 326.381531,391.680634 
	C326.750824,387.868530 325.229950,384.511139 321.082214,383.908875 
	C317.974030,383.457550 314.710602,384.075562 311.189270,384.232025 
	C311.189270,390.483093 311.124695,396.274719 311.254425,402.062012 
	C311.275452,402.999268 312.159180,403.917145 313.493408,404.900604 
M146.515610,398.097382 
	C151.856201,397.171753 154.660950,393.521454 153.546936,388.946350 
	C152.554932,384.872314 148.413391,382.664337 144.156311,383.963135 
	C140.595047,385.049652 139.126984,387.760162 139.269272,391.182831 
	C139.433289,395.128693 141.510468,397.687958 146.515610,398.097382 
M166.753922,397.103943 
	C170.237106,398.809479 174.155334,398.985382 176.041656,395.612701 
	C177.387131,393.207031 177.627747,388.855621 176.270233,386.673248 
	C175.120621,384.825073 170.756714,383.756104 168.195343,384.263000 
	C163.030441,385.285126 162.215393,391.536011 166.753922,397.103943 
M258.470062,385.113922 
	C260.160339,385.440125 261.850647,385.766357 263.907776,386.163361 
	C261.743164,380.902039 258.276764,379.055817 253.505539,380.121399 
	C249.409698,381.036163 246.343140,384.924377 246.554260,389.311768 
	C246.770370,393.802765 249.152527,396.819946 253.553223,397.890472 
	C258.382324,399.065216 261.797852,397.131836 263.895599,391.814819 
	C261.842102,392.254211 260.167908,392.802917 258.462830,392.927063 
	C256.515503,393.068848 253.577850,393.579956 252.805252,392.584381 
	C251.670105,391.121674 251.222198,387.982147 252.082855,386.466278 
	C252.805878,385.192871 255.816849,385.218536 258.470062,385.113922 
M329.114410,386.880646 
	C325.996155,396.009216 330.059631,399.194000 342.775146,397.428894 
	C342.775146,393.055145 342.775146,388.660339 342.775146,382.949493 
	C337.992310,384.138397 333.766479,385.188812 329.114410,386.880646 
M367.645630,396.023987 
	C367.171143,398.822235 366.696686,401.620514 366.222198,404.418762 
	C366.864166,404.775146 367.506134,405.131500 368.148132,405.487885 
	C373.914856,399.939636 374.794800,391.526703 378.758759,384.586273 
	C371.752563,382.163269 374.113586,390.000122 370.696075,390.910889 
	C368.336945,388.581116 369.889557,381.953979 363.317291,384.416870 
	C363.405396,384.935394 363.408173,385.277863 363.522980,385.577454 
	C364.769897,388.830841 366.034332,392.077484 367.645630,396.023987 
M268.119019,385.723541 
	C267.809357,386.108521 267.427917,386.455566 267.201355,386.884430 
	C265.264496,390.551178 265.496429,394.052429 268.872833,396.615021 
	C271.927643,398.933472 275.483643,398.912903 278.471802,396.430634 
	C281.544312,393.878235 281.902985,390.407532 279.904541,387.060272 
	C277.702789,383.372467 274.187714,382.987152 270.373199,384.221619 
	C269.762756,384.419159 269.235168,384.872650 268.119019,385.723541 
M194.946686,390.573792 
	C194.846985,394.414856 196.623962,397.459808 200.348038,397.731567 
	C202.947372,397.921234 206.537567,396.886200 208.112518,395.049622 
	C209.499557,393.432129 209.699951,389.375763 208.595123,387.441101 
	C207.483078,385.493896 204.176804,383.990295 201.721313,383.811401 
	C198.125443,383.549377 195.525482,385.842865 194.946686,390.573792 
M357.806183,397.939453 
	C358.852142,397.474030 360.774353,397.053040 360.800568,396.535889 
	C360.959076,393.410095 361.131897,390.145508 360.356659,387.173340 
	C359.993286,385.780304 357.641144,384.299347 355.978699,383.987885 
	C353.187225,383.464966 350.226593,383.844788 347.449188,383.844788 
	C345.889282,395.973450 346.447021,398.023376 351.172455,397.256531 
	C351.172455,395.506653 350.828400,393.604309 351.275757,391.911072 
	C351.670319,390.417755 352.948425,389.157898 353.836426,387.794952 
	C354.731293,389.095764 355.999420,390.285522 356.427795,391.725159 
	C356.978973,393.577576 356.856781,395.630341 357.806183,397.939453 
M185.732910,398.061798 
	C189.200241,398.166077 192.172302,397.531738 193.182648,392.829193 
	C191.126022,393.202881 189.563507,393.686737 187.995819,393.704163 
	C186.876068,393.716583 185.222824,393.430176 184.760117,392.685394 
	C184.192459,391.771698 184.172455,389.947876 184.751968,389.068787 
	C185.229401,388.344543 186.920059,388.229004 188.083450,388.194458 
	C189.677032,388.147156 191.280472,388.431824 193.724304,388.649445 
	C191.384338,384.134033 188.277237,382.575165 185.038605,384.043091 
	C182.748993,385.080902 180.377060,387.815826 179.761490,390.231354 
	C178.819946,393.926056 180.946838,396.901947 185.732910,398.061798 
M133.012909,394.272797 
	C133.012909,390.984772 133.012909,387.696777 133.012909,384.453979 
	C133.796951,384.149445 134.270248,384.040771 134.661636,383.799286 
	C135.745102,383.130737 136.794403,382.406769 137.857224,381.704712 
	C136.697403,381.139771 135.570724,380.190674 134.371094,380.087189 
	C131.579193,379.846344 128.747238,379.921600 125.942429,380.072052 
	C125.139809,380.115112 124.374496,380.853851 123.592064,381.273590 
	C124.198692,382.079437 124.671227,383.070251 125.451813,383.636169 
	C126.152962,384.144440 127.192528,384.185944 128.398651,384.521118 
	C128.398651,389.024323 128.398651,393.278931 128.398651,397.533539 
	C128.879486,397.872742 129.360321,398.211975 129.841156,398.551178 
	C130.897324,397.433838 131.953506,396.316467 133.012909,394.272797 
M160.939880,381.877380 
	C159.954636,380.945251 158.969376,380.013092 157.984146,379.080963 
	C157.374847,380.064880 156.288437,381.025787 156.239685,382.036713 
	C156.039322,386.191223 156.251617,390.363892 156.125137,394.524170 
	C156.010025,398.311005 157.716309,398.678009 160.943741,397.299438 
	C160.943741,392.423584 160.943741,387.611816 160.939880,381.877380 
z"/>
<path fill="#6E65FF" opacity="1.000000" stroke="none" 
	d="
M162.645630,175.662842 
	C182.597168,146.149307 214.295044,134.431747 249.969101,143.620834 
	C248.854263,146.345871 248.074982,149.210022 246.518112,151.558746 
	C245.938766,152.432755 243.450607,152.546646 241.983810,152.253098 
	C208.936996,145.639145 174.675430,163.703476 164.472977,197.861694 
	C164.335541,198.321777 164.327682,198.820587 164.164139,199.971176 
	C175.384949,199.971176 186.439346,200.087555 197.484314,199.818192 
	C198.807236,199.785919 200.298843,197.826660 201.339508,196.473816 
	C209.269363,186.165085 222.584167,181.665710 235.723328,184.975662 
	C248.274078,188.137390 257.396118,197.932449 259.475342,210.781067 
	C223.431671,210.781067 187.445953,210.781067 151.109283,210.781067 
	C151.816559,197.983521 155.946045,186.597717 162.645630,175.662842 
z"/>
<path fill="#6F66FF" opacity="1.000000" stroke="none" 
	d="
M247.000000,222.127930 
	C262.453430,222.128006 277.406830,222.128006 293.646088,222.128006 
	C292.621185,213.074402 291.663757,204.616608 290.634979,195.528488 
	C293.349426,194.816696 296.621979,193.958557 300.204895,193.019028 
	C304.422058,205.573334 305.093781,218.029266 302.658539,230.623627 
	C302.449463,231.704880 299.827118,233.013458 298.307068,233.037628 
	C285.984406,233.233490 273.655640,233.259048 261.332489,233.078827 
	C257.713654,233.025909 255.432129,234.016998 253.017059,237.012344 
	C244.404816,247.693832 232.948776,251.664505 219.615494,248.442337 
	C206.268188,245.216782 198.358109,236.278748 194.843079,222.127869 
	C212.413254,222.127869 229.456635,222.127869 247.000000,222.127930 
z"/>
<path fill="#7067FF" opacity="1.000000" stroke="none" 
	d="
M198.412445,287.693542 
	C165.929108,273.776154 151.562180,243.592850 151.438385,222.416504 
	C154.695801,222.416504 157.958939,222.416504 161.700378,222.416504 
	C162.289047,225.345840 162.743164,228.421829 163.533157,231.408997 
	C170.555664,257.963654 187.288239,275.399658 214.198547,280.674927 
	C242.908936,286.303101 266.518463,276.259003 282.607727,251.578568 
	C286.887634,245.013351 291.028473,242.669052 298.549255,244.679825 
	C295.378937,253.782761 290.302246,261.866119 283.500793,268.715820 
	C259.364777,293.023041 230.935623,298.870453 198.412445,287.693542 
z"/>
<path fill="#0F2867" opacity="1.000000" stroke="none" 
	d="
M291.387756,118.513245 
	C283.740631,114.525742 276.392487,110.749641 268.674164,106.783310 
	C270.107178,103.175949 271.554749,99.531883 273.243042,95.281799 
	C309.943665,110.063072 337.307709,133.546188 350.867706,171.736450 
	C346.719604,173.192276 342.866150,174.544678 338.698975,176.007187 
	C330.109314,150.793777 313.897034,132.266769 291.387756,118.513245 
z"/>
<path fill="#0F2967" opacity="1.000000" stroke="none" 
	d="
M304.086731,166.028870 
	C292.627106,148.339066 276.420898,137.238556 257.154144,129.524109 
	C258.745911,125.479279 260.228943,121.710709 261.868439,117.544617 
	C291.581909,129.599045 313.875610,148.370087 324.680969,179.510910 
	C320.514069,180.942322 316.669250,182.263092 313.074066,183.498108 
	C309.989288,177.500854 307.122467,171.927261 304.086731,166.028870 
z"/>
<path fill="#0D2766" opacity="1.000000" stroke="none" 
	d="
M133.226105,321.049255 
	C133.226105,330.832642 133.226105,340.124969 133.226105,349.365448 
	C124.750336,350.991364 124.522125,350.896881 120.178429,344.160522 
	C116.681389,338.737183 113.182419,333.315094 108.715302,327.966736 
	C108.715302,335.216125 108.715302,342.465515 108.715302,349.853394 
	C105.160301,349.853394 102.374847,349.853394 99.316528,349.853394 
	C99.316528,337.176849 99.316528,324.642334 99.316528,312.140228 
	C105.179512,310.652191 109.440407,311.639709 112.434410,317.595123 
	C115.394127,323.482391 119.499573,328.793610 123.711441,335.298065 
	C123.711441,326.973938 123.711441,319.647003 123.711441,312.006714 
	C127.077202,312.006714 129.965073,312.006714 133.226089,312.006714 
	C133.226089,314.940887 133.226089,317.749512 133.226105,321.049255 
z"/>
<path fill="#152E6B" opacity="1.000000" stroke="none" 
	d="
M264.091614,338.186218 
	C260.663666,349.962891 252.082764,353.429016 242.005661,346.987793 
	C242.005661,352.777130 242.005661,358.291046 242.005661,364.182861 
	C238.649734,364.182861 235.763306,364.182861 232.546692,364.182861 
	C232.546692,349.456970 232.546692,334.786011 232.546692,319.225067 
	C236.142685,319.757446 239.449905,320.247101 244.174911,320.946655 
	C247.348358,318.511017 252.447830,318.064270 257.444244,321.243927 
	C263.479126,325.084473 264.943878,331.043793 264.091614,338.186218 
M242.922256,339.302429 
	C245.459534,342.629303 248.720581,343.279572 252.029205,340.942261 
	C255.493683,338.494873 256.160400,334.507141 253.915283,331.291718 
	C252.558426,329.348480 249.072968,327.640076 246.760437,327.883453 
	C242.335281,328.349152 241.474579,332.229309 241.885132,336.218018 
	C241.968307,337.026184 242.272217,337.811676 242.922256,339.302429 
z"/>
<path fill="#0F2867" opacity="1.000000" stroke="none" 
	d="
M225.430298,346.612762 
	C225.807312,349.609283 224.483658,350.379425 222.252670,349.990540 
	C219.877670,349.576569 217.527100,349.022491 213.711929,348.226044 
	C208.350601,351.736481 201.949844,351.244049 197.178467,345.725189 
	C191.976562,339.708374 192.089081,329.597717 197.423950,323.668640 
	C202.235016,318.321716 208.793396,317.834442 215.315628,322.339386 
	C216.845291,319.298828 217.063629,319.242218 225.430862,319.952850 
	C225.430862,328.636139 225.430862,337.394196 225.430298,346.612762 
M212.599243,341.443848 
	C216.275284,338.010742 217.604614,333.477844 214.813766,330.634796 
	C213.104813,328.893860 209.550705,327.597809 207.254730,328.093048 
	C202.911621,329.029938 202.281967,333.163177 203.126602,336.954468 
	C204.147797,341.538116 207.470551,342.884491 212.599243,341.443848 
z"/>
<path fill="#0C2665" opacity="1.000000" stroke="none" 
	d="
M291.148499,349.959167 
	C290.406860,345.035767 290.061310,340.151398 289.896637,335.260956 
	C289.710632,329.738007 287.862976,327.121704 283.817993,327.378876 
	C279.003235,327.684967 278.025787,330.998138 278.084259,335.086395 
	C278.152771,339.878723 278.100250,344.672791 278.100250,349.732025 
	C275.058350,349.732025 272.309448,349.732025 269.227631,349.732025 
	C269.227631,336.619720 269.227631,323.436249 269.227631,310.005005 
	C272.044647,310.005005 274.784668,310.005005 277.866760,310.005005 
	C277.866760,314.143280 277.866760,318.239532 277.866760,323.006714 
	C279.170166,322.196564 279.932190,321.724457 280.692749,321.249939 
	C288.780273,316.204895 298.093781,320.881317 298.963287,330.432373 
	C299.038544,331.258759 299.041412,332.093628 299.042389,332.924591 
	C299.048950,338.397461 299.045776,343.870331 299.045776,349.995483 
	C296.465149,349.995483 294.044800,349.995483 291.148499,349.959167 
z"/>
<path fill="#102967" opacity="1.000000" stroke="none" 
	d="
M276.245911,155.742371 
	C285.966461,163.511261 292.867035,172.870682 296.929718,184.709991 
	C293.060394,186.096741 289.212463,187.475830 284.907715,189.018631 
	C278.958832,173.142120 267.589966,162.870804 251.907822,156.832687 
	C253.545670,152.699417 255.044205,148.917740 256.948975,144.110855 
	C263.567871,148.082687 269.766602,151.802368 276.245911,155.742371 
z"/>
<path fill="#122B69" opacity="1.000000" stroke="none" 
	d="
M388.306824,342.194672 
	C393.568359,341.304871 398.419037,340.353119 403.836884,339.290100 
	C401.186371,348.087891 393.838379,351.908051 385.303680,349.922150 
	C377.664398,348.144592 373.073242,340.259399 374.631287,331.592651 
	C376.143311,323.182037 383.219696,318.103943 391.714874,319.333282 
	C400.922913,320.665771 405.548492,326.996674 404.730774,337.661133 
	C398.040039,337.661133 391.287415,337.661133 384.534790,337.661133 
	C384.314941,338.061218 384.095123,338.461334 383.875305,338.861420 
	C385.215546,339.951843 386.555756,341.042297 388.306824,342.194672 
M384.977814,329.621796 
	C385.154938,330.409149 385.300354,331.872345 385.513916,331.882385 
	C388.657135,332.029755 391.809418,331.983856 395.420959,331.983856 
	C392.080444,326.542450 390.361237,326.152527 384.977814,329.621796 
z"/>
<path fill="#112A68" opacity="1.000000" stroke="none" 
	d="
M310.044983,321.899597 
	C322.860443,315.532318 335.103729,322.002930 335.100159,334.782532 
	C335.098114,342.082916 330.908508,347.905792 324.317871,349.768219 
	C317.019714,351.830566 309.098175,348.983276 305.511353,343.008484 
	C301.913605,337.015594 302.888214,328.746582 307.814819,323.684937 
	C308.390076,323.093933 309.082275,322.616760 310.044983,321.899597 
M325.119080,331.581421 
	C323.468964,327.817047 320.704163,326.159485 316.798401,327.877075 
	C312.684937,329.686005 312.447479,333.483337 313.203766,337.186737 
	C313.914001,340.664520 316.327850,342.630127 320.041321,342.217865 
	C324.433594,341.730225 325.456055,338.462830 325.695648,334.755493 
	C325.747284,333.956512 325.453888,333.135223 325.119080,331.581421 
z"/>
<path fill="#112A68" opacity="1.000000" stroke="none" 
	d="
M167.000732,343.889099 
	C161.754333,350.422729 155.190765,351.642151 147.972366,349.310272 
	C141.882431,347.342987 138.533417,342.781738 137.996414,336.347137 
	C137.432022,329.584137 139.825714,324.178436 146.022369,321.089752 
	C152.148209,318.036469 158.364090,318.376770 163.884247,322.531555 
	C169.396866,326.680634 170.674164,332.516693 169.093964,339.027191 
	C168.711487,340.602936 167.839874,342.059937 167.000732,343.889099 
M147.368530,334.596130 
	C148.284500,340.279083 150.412704,342.674011 154.405060,342.240967 
	C158.428177,341.804596 159.906219,339.093079 160.085876,335.382690 
	C160.284546,331.279999 158.906464,327.936676 154.536896,327.360657 
	C150.068726,326.771606 148.024551,329.708557 147.368530,334.596130 
z"/>
<path fill="#0D2666" opacity="1.000000" stroke="none" 
	d="
M339.899841,335.000671 
	C339.899841,329.695221 339.899841,324.888275 339.899841,319.643066 
	C343.408356,320.559448 347.614624,317.180695 349.712494,322.663788 
	C353.978027,319.089905 358.933411,317.846832 364.212402,320.822906 
	C369.426819,323.762512 370.174225,328.819000 370.070129,334.225098 
	C369.971527,339.346832 370.048950,344.471954 370.048950,349.794250 
	C366.880707,349.794250 364.132324,349.794250 360.875885,349.794250 
	C360.875885,345.721649 360.876923,341.774902 360.875671,337.828186 
	C360.873108,329.823486 359.396179,327.254059 354.854797,327.349609 
	C350.511505,327.441010 349.102966,329.942932 349.100433,337.575317 
	C349.099121,341.543549 349.100189,345.511810 349.100189,349.740295 
	C346.037415,349.740295 343.284332,349.740295 339.899841,349.740295 
	C339.899841,345.023621 339.899841,340.261383 339.899841,335.000671 
z"/>
<path fill="#122B69" opacity="1.000000" stroke="none" 
	d="
M190.579956,322.256012 
	C190.583374,323.987122 190.583374,325.303436 190.583374,326.871857 
	C188.570236,327.148468 186.823654,327.388428 185.111313,327.623718 
	C182.722488,338.231140 183.884079,341.647644 190.356964,342.321259 
	C190.356964,344.684021 190.356964,347.085266 190.356964,349.479828 
	C178.934479,351.341644 175.203461,348.155640 174.947021,337.014313 
	C174.861145,333.283630 176.726196,329.000061 172.382965,325.866638 
	C171.703201,325.376221 173.261887,321.747375 173.824829,319.579956 
	C174.411972,317.319366 175.046677,315.071167 175.771057,312.412048 
	C178.183044,312.412048 181.068253,312.412048 184.157974,312.412048 
	C184.321533,314.636658 184.476913,316.750000 184.569778,318.013031 
	C186.942078,319.524933 188.759308,320.683105 190.579956,322.256012 
z"/>
<path fill="#766DFF" opacity="1.000000" stroke="none" 
	d="
M283.500183,385.689026 
	C287.318817,384.927582 291.093658,384.546112 294.875885,384.263580 
	C296.348694,384.153564 297.949738,384.628357 299.299713,384.212036 
	C303.793732,382.826050 306.937073,384.535797 307.618500,389.199280 
	C307.881104,390.996155 307.653473,392.859100 307.764099,394.684967 
	C307.977356,398.205475 306.194946,398.495697 303.048157,397.447876 
	C303.048157,395.296783 303.318237,393.115204 302.943207,391.050842 
	C302.730530,389.880127 301.460358,388.901520 300.666473,387.836395 
	C299.754974,388.947388 298.347473,389.940308 298.048370,391.197021 
	C297.600647,393.078400 297.932007,395.145142 297.932007,397.336151 
	C294.892517,398.542328 292.985382,398.437286 293.210175,394.551056 
	C293.277374,393.389496 293.499664,392.115417 293.126923,391.081818 
	C292.697113,389.890045 291.687500,388.907440 290.929626,387.833984 
	C289.967590,388.915710 288.451691,389.870880 288.168945,391.107880 
	C287.705597,393.135193 288.043549,395.345612 288.043549,397.738739 
	C286.381622,397.738739 285.154755,397.738739 283.459351,397.738739 
	C283.459351,393.713562 283.459351,389.911041 283.500183,385.689026 
z"/>
<path fill="#786FFF" opacity="1.000000" stroke="none" 
	d="
M236.491577,392.268188 
	C236.492798,394.323090 236.492798,395.955231 236.492798,397.422668 
	C232.917557,398.784302 231.646011,397.716919 231.923065,394.479248 
	C232.035965,393.159882 232.279587,391.648682 231.775391,390.536926 
	C231.277054,389.438141 229.910202,388.733276 228.924316,387.855591 
	C228.209335,388.795715 227.178543,389.641510 226.862137,390.700653 
	C226.496094,391.925842 226.679245,393.343994 226.764023,394.669403 
	C226.987762,398.168152 225.222046,398.513275 222.006226,397.452698 
	C222.006226,395.165771 222.236832,392.836029 221.901031,390.590973 
	C221.751343,389.590149 220.461807,388.759857 219.689606,387.852142 
	C218.778168,388.784027 217.294250,389.600189 217.077469,390.672455 
	C216.658829,392.743256 216.955261,394.958618 216.955261,396.969482 
	C211.901505,399.852570 211.682053,398.121185 212.572662,383.726349 
	C216.580307,384.115112 220.617432,384.518250 224.657578,384.888428 
	C225.410019,384.957397 226.223190,385.065277 226.926010,384.865540 
	C234.221298,382.792206 235.812881,383.937164 236.491577,392.268188 
z"/>
<path fill="#786FFF" opacity="1.000000" stroke="none" 
	d="
M313.068787,404.872314 
	C312.159180,403.917145 311.275452,402.999268 311.254425,402.062012 
	C311.124695,396.274719 311.189270,390.483093 311.189270,384.232025 
	C314.710602,384.075562 317.974030,383.457550 321.082214,383.908875 
	C325.229950,384.511139 326.750824,387.868530 326.381531,391.680634 
	C326.007751,395.539612 323.885559,398.180420 319.551727,398.051300 
	C318.461914,398.018860 317.381195,397.681702 316.453064,397.513092 
	C314.568481,399.763397 318.307068,403.967163 313.068787,404.872314 
M320.124390,393.883575 
	C322.489868,392.111084 322.704224,389.964478 320.328156,388.349396 
	C319.565521,387.830994 316.795013,388.640350 316.412415,389.497803 
	C315.320221,391.945648 316.030151,394.037170 320.124390,393.883575 
z"/>
<path fill="#766DFF" opacity="1.000000" stroke="none" 
	d="
M146.108337,398.086060 
	C141.510468,397.687958 139.433289,395.128693 139.269272,391.182831 
	C139.126984,387.760162 140.595047,385.049652 144.156311,383.963135 
	C148.413391,382.664337 152.554932,384.872314 153.546936,388.946350 
	C154.660950,393.521454 151.856201,397.171753 146.108337,398.086060 
z"/>
<path fill="#776EFF" opacity="1.000000" stroke="none" 
	d="
M166.433594,396.880798 
	C162.215393,391.536011 163.030441,385.285126 168.195343,384.263000 
	C170.756714,383.756104 175.120621,384.825073 176.270233,386.673248 
	C177.627747,388.855621 177.387131,393.207031 176.041656,395.612701 
	C174.155334,398.985382 170.237106,398.809479 166.433594,396.880798 
z"/>
<path fill="#746CFF" opacity="1.000000" stroke="none" 
	d="
M258.142487,384.891510 
	C255.816849,385.218536 252.805878,385.192871 252.082855,386.466278 
	C251.222198,387.982147 251.670105,391.121674 252.805252,392.584381 
	C253.577850,393.579956 256.515503,393.068848 258.462830,392.927063 
	C260.167908,392.802917 261.842102,392.254211 263.895599,391.814819 
	C261.797852,397.131836 258.382324,399.065216 253.553223,397.890472 
	C249.152527,396.819946 246.770370,393.802765 246.554260,389.311768 
	C246.343140,384.924377 249.409698,381.036163 253.505539,380.121399 
	C258.276764,379.055817 261.743164,380.902039 263.907776,386.163361 
	C261.850647,385.766357 260.160339,385.440125 258.142487,384.891510 
z"/>
<path fill="#746CFF" opacity="1.000000" stroke="none" 
	d="
M329.327545,386.559937 
	C333.766479,385.188812 337.992310,384.138397 342.775146,382.949493 
	C342.775146,388.660339 342.775146,393.055145 342.775146,397.428894 
	C330.059631,399.194000 325.996155,396.009216 329.327545,386.559937 
M332.978668,392.160187 
	C334.438873,392.645203 335.899078,393.130188 337.359283,393.615173 
	C337.744324,392.449097 338.626404,391.156158 338.370605,390.153625 
	C338.128815,389.206085 336.691437,388.563629 335.779907,387.786957 
	C334.798462,388.967987 333.817017,390.148987 332.978668,392.160187 
z"/>
<path fill="#746CFF" opacity="1.000000" stroke="none" 
	d="
M367.469818,395.674988 
	C366.034332,392.077484 364.769897,388.830841 363.522980,385.577454 
	C363.408173,385.277863 363.405396,384.935394 363.317291,384.416870 
	C369.889557,381.953979 368.336945,388.581116 370.696075,390.910889 
	C374.113586,390.000122 371.752563,382.163269 378.758759,384.586273 
	C374.794800,391.526703 373.914856,399.939636 368.148132,405.487885 
	C367.506134,405.131500 366.864166,404.775146 366.222198,404.418762 
	C366.696686,401.620514 367.171143,398.822235 367.469818,395.674988 
z"/>
<path fill="#776EFF" opacity="1.000000" stroke="none" 
	d="
M268.394165,385.465698 
	C269.235168,384.872650 269.762756,384.419159 270.373199,384.221619 
	C274.187714,382.987152 277.702789,383.372467 279.904541,387.060272 
	C281.902985,390.407532 281.544312,393.878235 278.471802,396.430634 
	C275.483643,398.912903 271.927643,398.933472 268.872833,396.615021 
	C265.496429,394.052429 265.264496,390.551178 267.201355,386.884430 
	C267.427917,386.455566 267.809357,386.108521 268.394165,385.465698 
M271.007080,392.194824 
	C272.323212,392.724335 273.639343,393.253876 274.955475,393.783386 
	C275.340118,392.466827 276.167236,391.073120 275.955750,389.860565 
	C275.811890,389.035858 274.213226,388.464905 273.265106,387.780487 
	C272.464844,388.965729 271.664581,390.150970 271.007080,392.194824 
z"/>
<path fill="#766DFF" opacity="1.000000" stroke="none" 
	d="
M194.961761,390.169983 
	C195.525482,385.842865 198.125443,383.549377 201.721313,383.811401 
	C204.176804,383.990295 207.483078,385.493896 208.595123,387.441101 
	C209.699951,389.375763 209.499557,393.432129 208.112518,395.049622 
	C206.537567,396.886200 202.947372,397.921234 200.348038,397.731567 
	C196.623962,397.459808 194.846985,394.414856 194.961761,390.169983 
M200.321198,388.421265 
	C198.994797,390.750183 198.657578,393.035736 201.761551,393.931763 
	C202.562485,394.162964 204.623734,392.734253 204.838303,391.782318 
	C205.477859,388.944916 204.266174,387.243744 200.321198,388.421265 
z"/>
<path fill="#7067FF" opacity="1.000000" stroke="none" 
	d="
M357.415405,397.768127 
	C356.856781,395.630341 356.978973,393.577576 356.427795,391.725159 
	C355.999420,390.285522 354.731293,389.095764 353.836426,387.794952 
	C352.948425,389.157898 351.670319,390.417755 351.275757,391.911072 
	C350.828400,393.604309 351.172455,395.506653 351.172455,397.256531 
	C346.447021,398.023376 345.889282,395.973450 347.449188,383.844788 
	C350.226593,383.844788 353.187225,383.464966 355.978699,383.987885 
	C357.641144,384.299347 359.993286,385.780304 360.356659,387.173340 
	C361.131897,390.145508 360.959076,393.410095 360.800568,396.535889 
	C360.774353,397.053040 358.852142,397.474030 357.415405,397.768127 
z"/>
<path fill="#766DFF" opacity="1.000000" stroke="none" 
	d="
M185.337769,398.025696 
	C180.946838,396.901947 178.819946,393.926056 179.761490,390.231354 
	C180.377060,387.815826 182.748993,385.080902 185.038605,384.043091 
	C188.277237,382.575165 191.384338,384.134033 193.724304,388.649445 
	C191.280472,388.431824 189.677032,388.147156 188.083450,388.194458 
	C186.920059,388.229004 185.229401,388.344543 184.751968,389.068787 
	C184.172455,389.947876 184.192459,391.771698 184.760117,392.685394 
	C185.222824,393.430176 186.876068,393.716583 187.995819,393.704163 
	C189.563507,393.686737 191.126022,393.202881 193.182648,392.829193 
	C192.172302,397.531738 189.200241,398.166077 185.337769,398.025696 
z"/>
<path fill="#7F77FF" opacity="1.000000" stroke="none" 
	d="
M133.011292,394.735962 
	C131.953506,396.316467 130.897324,397.433838 129.841156,398.551178 
	C129.360321,398.211975 128.879486,397.872742 128.398651,397.533539 
	C128.398651,393.278931 128.398651,389.024323 128.398651,384.521118 
	C127.192528,384.185944 126.152962,384.144440 125.451813,383.636169 
	C124.671227,383.070251 124.198692,382.079437 123.592072,381.273590 
	C124.374496,380.853851 125.139809,380.115112 125.942429,380.072052 
	C128.747238,379.921600 131.579193,379.846344 134.371094,380.087189 
	C135.570724,380.190674 136.697403,381.139771 137.857239,381.704712 
	C136.794403,382.406769 135.745102,383.130737 134.661636,383.799286 
	C134.270248,384.040771 133.796951,384.149445 133.012909,384.453979 
	C133.012909,387.696777 133.012909,390.984772 133.011292,394.735962 
z"/>
<path fill="#7F77FF" opacity="1.000000" stroke="none" 
	d="
M160.941803,382.338715 
	C160.943741,387.611816 160.943741,392.423584 160.943741,397.299438 
	C157.716309,398.678009 156.010025,398.311005 156.125137,394.524170 
	C156.251617,390.363892 156.039322,386.191223 156.239685,382.036713 
	C156.288437,381.025787 157.374847,380.064880 157.984131,379.080963 
	C158.969376,380.013092 159.954636,380.945251 160.941803,382.338715 
z"/>
<path fill="#F6F7F9" opacity="1.000000" stroke="none" 
	d="
M242.698318,338.955017 
	C242.272217,337.811676 241.968307,337.026184 241.885132,336.218018 
	C241.474579,332.229309 242.335281,328.349152 246.760437,327.883453 
	C249.072968,327.640076 252.558426,329.348480 253.915283,331.291718 
	C256.160400,334.507141 255.493683,338.494873 252.029205,340.942261 
	C248.720581,343.279572 245.459534,342.629303 242.698318,338.955017 
z"/>
<path fill="#F6F7F9" opacity="1.000000" stroke="none" 
	d="
M212.242737,341.638245 
	C207.470551,342.884491 204.147797,341.538116 203.126602,336.954468 
	C202.281967,333.163177 202.911621,329.029938 207.254730,328.093048 
	C209.550705,327.597809 213.104813,328.893860 214.813766,330.634796 
	C217.604614,333.477844 216.275284,338.010742 212.242737,341.638245 
z"/>
<path fill="#F6F7F9" opacity="1.000000" stroke="none" 
	d="
M385.216858,329.313843 
	C390.361237,326.152527 392.080444,326.542450 395.420959,331.983856 
	C391.809418,331.983856 388.657135,332.029755 385.513916,331.882385 
	C385.300354,331.872345 385.154938,330.409149 385.216858,329.313843 
z"/>
<path fill="#F6F7F9" opacity="1.000000" stroke="none" 
	d="
M325.219238,331.952820 
	C325.453888,333.135223 325.747284,333.956512 325.695648,334.755493 
	C325.456055,338.462830 324.433594,341.730225 320.041321,342.217865 
	C316.327850,342.630127 313.914001,340.664520 313.203766,337.186737 
	C312.447479,333.483337 312.684937,329.686005 316.798401,327.877075 
	C320.704163,326.159485 323.468964,327.817047 325.219238,331.952820 
z"/>
<path fill="#F6F7F9" opacity="1.000000" stroke="none" 
	d="
M147.401794,334.212189 
	C148.024551,329.708557 150.068726,326.771606 154.536896,327.360657 
	C158.906464,327.936676 160.284546,331.279999 160.085876,335.382690 
	C159.906219,339.093079 158.428177,341.804596 154.405060,342.240967 
	C150.412704,342.674011 148.284500,340.279083 147.401794,334.212189 
z"/>
<path fill="#F8F7FF" opacity="1.000000" stroke="none" 
	d="
M319.729309,393.982605 
	C316.030151,394.037170 315.320221,391.945648 316.412415,389.497803 
	C316.795013,388.640350 319.565521,387.830994 320.328156,388.349396 
	C322.704224,389.964478 322.489868,392.111084 319.729309,393.982605 
z"/>
<path fill="#F8F7FF" opacity="1.000000" stroke="none" 
	d="
M332.907104,391.745087 
	C333.817017,390.148987 334.798462,388.967987 335.779907,387.786987 
	C336.691437,388.563629 338.128815,389.206085 338.370605,390.153625 
	C338.626404,391.156158 337.744324,392.449097 337.359283,393.615173 
	C335.899078,393.130188 334.438873,392.645203 332.907104,391.745087 
z"/>
<path fill="#F8F7FF" opacity="1.000000" stroke="none" 
	d="
M270.935730,391.765533 
	C271.664581,390.150970 272.464844,388.965729 273.265106,387.780487 
	C274.213226,388.464905 275.811890,389.035858 275.955750,389.860565 
	C276.167236,391.073120 275.340118,392.466827 274.955475,393.783386 
	C273.639343,393.253876 272.323212,392.724335 270.935730,391.765533 
z"/>
<path fill="#F8F7FF" opacity="1.000000" stroke="none" 
	d="
M200.658478,388.215607 
	C204.266174,387.243744 205.477859,388.944916 204.838303,391.782318 
	C204.623734,392.734253 202.562485,394.162964 201.761551,393.931763 
	C198.657578,393.035736 198.994797,390.750183 200.658478,388.215607 
z"/>
</svg>